<?xml version="1.0" encoding="utf-8"?>
<!-- Generator: Adobe Illustrator 17.1.0, SVG Export Plug-In . SVG Version: 6.00 Build 0)  -->
<!DOCTYPE svg PUBLIC "-//W3C//DTD SVG 1.1//EN" "http://www.w3.org/Graphics/SVG/1.1/DTD/svg11.dtd">
<svg version="1.1" xmlns="http://www.w3.org/2000/svg" xmlns:xlink="http://www.w3.org/1999/xlink" x="0px" y="0px"
	 viewBox="0 0 23.8 15.2" enable-background="new 0 0 23.8 15.2" xml:space="preserve">
<g id="Layer_1">
	<path fill="#919190" d="M0,14.6V0.4l7.1,7.1L0,14.6L0,14.6z M12.7,10.1c-0.4,0.4-1.2,0.4-1.6,0L1,0h21.8L12.7,10.1L12.7,10.1z
		 M0.8,15.2l7-7l2.6,2.6c0.4,0.4,0.9,0.6,1.5,0.6c0.6,0,1.1-0.2,1.5-0.6L16,8.2l7,7L0.8,15.2L0.8,15.2z M16.6,7.5l7.1-7.1v14.2
		L16.6,7.5L16.6,7.5z"/>
</g>
<g id="Creative_Commons_License" display="none">
	
		<text id="Creative_Commons_License_1_" transform="matrix(1 0 0 1 -734.863 3757.2935)" display="inline" font-family="'MyriadPro-Regular'" font-size="12">With assets by Pixeden / CC BY</text>
</g>
</svg>
