<?xml version="1.0" encoding="utf-8"?>
<!-- Generator: Adobe Illustrator 17.1.0, SVG Export Plug-In . SVG Version: 6.00 Build 0)  -->
<!DOCTYPE svg PUBLIC "-//W3C//DTD SVG 1.1//EN" "http://www.w3.org/Graphics/SVG/1.1/DTD/svg11.dtd">
<svg version="1.1" xmlns="http://www.w3.org/2000/svg" xmlns:xlink="http://www.w3.org/1999/xlink" x="0px" y="0px"
	 viewBox="0 0 19.6 19.6" enable-background="new 0 0 19.6 19.6" xml:space="preserve">
<g id="Layer_1">
	<path fill="#7e8892" d="M7,17.3l-4.7-4.7L12.6,2.3L17.3,7L7,17.3L7,17.3z M17.8,6.5l-4.7-4.7l1.4-1.4l4.7,4.7L17.8,6.5L17.8,6.5z
		 M0,19.6L1.9,13l4.7,4.7L0,19.6L0,19.6z M19.2,5.1c-0.5,0.5-1.3,0.5-1.8,0.1l-2.9-2.9C14,1.7,14,0.9,14.5,0.4
		c0.5-0.5,1.3-0.5,1.8-0.1l2.9,2.9C19.7,3.8,19.7,4.6,19.2,5.1L19.2,5.1z"/>
</g>
</svg>
