<?xml version="1.0" encoding="utf-8"?>
<!-- Generator: Adobe Illustrator 17.1.0, SVG Export Plug-In . SVG Version: 6.00 Build 0)  -->
<!DOCTYPE svg PUBLIC "-//W3C//DTD SVG 1.1//EN" "http://www.w3.org/Graphics/SVG/1.1/DTD/svg11.dtd">
<svg version="1.1" xmlns="http://www.w3.org/2000/svg" xmlns:xlink="http://www.w3.org/1999/xlink" x="0px" y="0px"
	 viewBox="0 0 48 48" enable-background="new 0 0 48 48" xml:space="preserve">
<g id="Layer_1">
	<path fill="#7E8892" d="M32.6,4.4c3.8-0.1,5.8,1.3,7.7,3.1c1.6-0.1,3.8-1.1,5-1.7c0.4-0.2,0.8-0.4,1.2-0.7
		c-0.7,1.9-1.7,3.5-3.2,4.6c-0.3,0.3-0.7,0.6-1.1,0.8c0,0,0,0,0,0c2.1,0,3.9-1,5.5-1.5c0,0,0,0,0,0c-0.9,1.4-2.1,2.8-3.3,3.8
		c-0.5,0.4-1,0.8-1.5,1.2c0,2.3,0,4.4-0.5,6.3C40.1,31.5,33.6,39,23.4,42.3c-3.7,1.2-9.6,1.6-13.8,0.6c-2.1-0.5-4-1.1-5.7-1.9
		c-1-0.4-1.9-0.9-2.8-1.4c-0.3-0.2-0.6-0.4-0.9-0.5c1,0,2.1,0.3,3.1,0.1c1-0.2,1.9-0.1,2.8-0.3c2.2-0.5,4.2-1.1,5.9-2.1
		c0.8-0.5,2.1-1.1,2.6-1.7c-1.1,0-2.1-0.2-2.9-0.5c-3.2-1.1-5-3.2-6.2-6.3c1,0.1,3.7,0.4,4.4-0.2c-1.2-0.1-2.4-0.8-3.2-1.3
		C4.1,25,2,22.3,2.1,18.1c0.3,0.2,0.7,0.3,1,0.5c0.6,0.3,1.3,0.4,2.1,0.6c0.3,0.1,1,0.3,1.3,0.1c0,0,0,0,0,0c-0.5-0.6-1.3-1-1.8-1.6
		c-1.6-2-3.2-5.2-2.2-8.9c0.2-1,0.6-1.8,1-2.6c0,0,0,0,0,0c0.2,0.4,0.6,0.7,0.9,1c0.8,1,1.9,2,2.9,2.8c3.6,2.8,6.8,4.5,12,5.8
		c1.3,0.3,2.8,0.6,4.4,0.6c-0.4-1.3-0.3-3.4,0-4.6c0.9-3.1,2.8-5.4,5.5-6.6c0.7-0.3,1.4-0.5,2.2-0.7C31.8,4.5,32.2,4.5,32.6,4.4
		L32.6,4.4z"/>
</g>
<g id="Creative_Commons_License" display="none">
	
		<text id="Creative_Commons_License_1_" transform="matrix(1 0 0 1 2 38.0439)" display="inline" font-family="'MyriadPro-Regular'" font-size="12">With assets by Visual Idiot / CC BY</text>
</g>
</svg>
